<svg width="232" height="130" viewBox="0 0 232 130" fill="none" xmlns="http://www.w3.org/2000/svg">
<path d="M88.5775 74.6072C87.8043 74.6491 87.0395 74.4293 86.4065 73.9832C86.142 73.7871 85.9292 73.5296 85.7865 73.2329C85.6439 72.9362 85.5755 72.6092 85.5875 72.2802V60.2292C85.5812 60.1782 85.5866 60.1264 85.6033 60.0777C85.62 60.0291 85.6476 59.985 85.684 59.9486C85.7203 59.9123 85.7645 59.8847 85.8131 59.868C85.8617 59.8512 85.9135 59.8459 85.9645 59.8522H88.1485C88.3955 59.8522 88.5125 59.9822 88.5125 60.2292V71.3442C88.5125 71.8382 88.7335 72.0852 89.1885 72.0852C89.3814 72.0931 89.5744 72.0712 89.7605 72.0202C90.0205 72.0202 90.1635 72.0982 90.1765 72.3322L90.3715 73.9572C90.3809 74.0045 90.38 74.0534 90.3689 74.1004C90.3578 74.1474 90.3368 74.1915 90.3072 74.2297C90.2776 74.2678 90.2402 74.2993 90.1975 74.3218C90.1548 74.3443 90.1077 74.3574 90.0595 74.3602C89.5812 74.5182 89.0813 74.6015 88.5775 74.6072V74.6072Z" fill="#0D0E10"/>
<path d="M100.863 73.216C99.7659 74.1227 98.3868 74.6187 96.9633 74.6187C95.5398 74.6187 94.1607 74.1227 93.0633 73.216C92.0987 72.2422 91.5576 70.9271 91.5576 69.5565C91.5576 68.1859 92.0987 66.8707 93.0633 65.897C94.1628 64.9949 95.5411 64.502 96.9633 64.502C98.3855 64.502 99.7637 64.9949 100.863 65.897C101.806 66.8797 102.332 68.1885 102.332 69.55C102.332 70.9115 101.806 72.2203 100.863 73.203V73.216ZM95.1173 71.5C95.6266 71.9613 96.2891 72.2168 96.9763 72.2168C97.6634 72.2168 98.326 71.9613 98.8353 71.5C99.2962 70.97 99.5501 70.2913 99.5501 69.589C99.5501 68.8866 99.2962 68.2079 98.8353 67.678C98.326 67.2167 97.6634 66.9612 96.9763 66.9612C96.2891 66.9612 95.6266 67.2167 95.1173 67.678C94.6564 68.2079 94.4025 68.8866 94.4025 69.589C94.4025 70.2913 94.6564 70.97 95.1173 71.5Z" fill="#0D0E10"/>
<path d="M114.357 64.8306C114.604 64.8306 114.721 64.9606 114.721 65.2076V74.5286C114.744 75.1577 114.626 75.7839 114.377 76.3618C114.127 76.9397 113.752 77.4548 113.278 77.8696C112.227 78.7658 110.875 79.2304 109.495 79.1696C108.249 79.2134 107.019 78.873 105.972 78.1946C105.525 77.9011 105.143 77.5188 104.851 77.0715C104.558 76.6243 104.36 76.1215 104.269 75.5946C104.269 75.3346 104.269 75.2176 104.62 75.2176H106.804C106.897 75.2207 106.987 75.2506 107.063 75.3037C107.139 75.3567 107.198 75.4307 107.233 75.5166C107.375 75.9114 107.657 76.24 108.026 76.4396C108.476 76.6716 108.976 76.7877 109.482 76.7776C109.787 76.7943 110.093 76.75 110.381 76.6473C110.669 76.5447 110.933 76.3856 111.159 76.1796C111.365 75.964 111.526 75.7088 111.631 75.4296C111.736 75.1503 111.783 74.8526 111.77 74.5546V73.7356C110.988 74.3107 110.037 74.6081 109.066 74.5806C108.387 74.6052 107.71 74.4925 107.076 74.249C106.441 74.0055 105.862 73.6363 105.374 73.1636C104.437 72.1939 103.913 70.8981 103.913 69.5496C103.913 68.201 104.437 66.9052 105.374 65.9356C105.865 65.467 106.444 65.1014 107.078 64.8603C107.712 64.6191 108.388 64.5074 109.066 64.5316C110.065 64.5052 111.042 64.8218 111.835 65.4286V65.2206C111.829 65.1707 111.834 65.1202 111.85 65.0726C111.866 65.0251 111.893 64.9817 111.928 64.9456C111.963 64.9095 112.005 64.8816 112.052 64.864C112.099 64.8463 112.149 64.8393 112.199 64.8436L114.357 64.8306ZM109.313 72.2666C109.648 72.2769 109.981 72.2136 110.289 72.0811C110.597 71.9485 110.872 71.75 111.094 71.4996C111.526 70.9414 111.761 70.2555 111.761 69.5496C111.761 68.8436 111.526 68.1577 111.094 67.5996C110.872 67.3525 110.599 67.1569 110.294 67.0267C109.988 66.8964 109.658 66.8346 109.326 66.8456C108.987 66.8349 108.65 66.898 108.338 67.0304C108.026 67.1628 107.747 67.3615 107.519 67.6126C107.04 68.1465 106.789 68.846 106.817 69.5626C106.794 70.2721 107.04 70.9642 107.506 71.4996C107.734 71.75 108.014 71.9481 108.326 72.0805C108.638 72.2129 108.975 72.2763 109.313 72.2666V72.2666Z" fill="#0D0E10"/>
<path d="M125.94 73.2161C124.84 74.1181 123.462 74.6111 122.04 74.6111C120.617 74.6111 119.239 74.1181 118.14 73.2161C117.196 72.2312 116.67 70.9202 116.67 69.5566C116.67 68.193 117.196 66.882 118.14 65.8971C119.24 64.9974 120.618 64.5059 122.04 64.5059C123.461 64.5059 124.839 64.9974 125.94 65.8971C126.882 66.8798 127.408 68.1886 127.408 69.5501C127.408 70.9116 126.882 72.2204 125.94 73.2031V73.2161ZM120.181 71.5001C120.43 71.7372 120.724 71.9225 121.045 72.0452C121.366 72.1679 121.709 72.2257 122.053 72.2151C122.394 72.2239 122.734 72.1653 123.053 72.0427C123.372 71.92 123.664 71.7356 123.912 71.5001C124.365 70.9666 124.614 70.2892 124.614 69.5891C124.614 68.8889 124.365 68.2116 123.912 67.6781C123.664 67.4426 123.372 67.2582 123.053 67.1355C122.734 67.0128 122.394 66.9542 122.053 66.9631C121.709 66.9525 121.366 67.0103 121.045 67.133C120.724 67.2557 120.43 67.441 120.181 67.6781C119.727 68.2116 119.478 68.8889 119.478 69.5891C119.478 70.2892 119.727 70.9666 120.181 71.5001V71.5001Z" fill="#0D0E10"/>
<path d="M132.102 62.6211C131.759 62.9218 131.318 63.0876 130.861 63.0876C130.404 63.0876 129.963 62.9218 129.619 62.6211C129.464 62.474 129.339 62.2967 129.255 62.1C129.17 61.9033 129.126 61.6913 129.126 61.4771C129.126 61.2628 129.17 61.0508 129.255 60.8541C129.339 60.6574 129.464 60.4801 129.619 60.3331C129.967 60.0398 130.406 59.8789 130.861 59.8789C131.315 59.8789 131.755 60.0398 132.102 60.3331C132.258 60.4801 132.382 60.6574 132.467 60.8541C132.552 61.0508 132.596 61.2628 132.596 61.4771C132.596 61.6913 132.552 61.9033 132.467 62.1C132.382 62.2967 132.258 62.474 132.102 62.6211V62.6211ZM132.375 74.607C131.603 74.6449 130.839 74.4255 130.204 73.983C129.944 73.7841 129.735 73.5257 129.595 73.2294C129.454 72.9331 129.387 72.6076 129.398 72.28V65.2081C129.392 65.157 129.397 65.1052 129.414 65.0566C129.431 65.008 129.458 64.9638 129.495 64.9275C129.531 64.8911 129.575 64.8636 129.624 64.8468C129.673 64.8301 129.724 64.8247 129.775 64.8311H131.959C132.206 64.8311 132.323 64.9611 132.323 65.2081V71.344C132.323 71.838 132.544 72.085 132.986 72.085C133.183 72.0921 133.381 72.0702 133.571 72.02C133.831 72.02 133.974 72.098 133.987 72.332L134.182 73.957C134.192 74.0044 134.191 74.0533 134.18 74.1003C134.169 74.1473 134.148 74.1913 134.118 74.2295C134.088 74.2677 134.051 74.2991 134.008 74.3216C133.966 74.3442 133.919 74.3572 133.87 74.36C133.388 74.519 132.883 74.6023 132.375 74.607V74.607Z" fill="#0D0E10"/>
<path d="M142.216 64.5191C142.898 64.4922 143.579 64.6026 144.218 64.8437C144.856 65.0849 145.44 65.452 145.934 65.9231C146.854 66.9097 147.365 68.2081 147.365 69.5566C147.365 70.9051 146.854 72.2035 145.934 73.1901C145.443 73.6655 144.86 74.0361 144.221 74.2797C143.581 74.5232 142.9 74.6346 142.216 74.6071C141.243 74.6288 140.289 74.3321 139.499 73.7621V78.4551C139.499 78.7021 139.369 78.8191 139.122 78.8191H136.938C136.888 78.8285 136.837 78.8255 136.789 78.8105C136.74 78.7955 136.696 78.7689 136.66 78.7331C136.625 78.6972 136.598 78.6532 136.583 78.6047C136.568 78.5563 136.565 78.505 136.574 78.4551V67.7951C136.59 67.6909 136.58 67.5845 136.547 67.4844C136.514 67.3844 136.458 67.2935 136.383 67.219C136.309 67.1444 136.218 67.0884 136.118 67.0553C136.018 67.0221 135.912 67.0128 135.807 67.0281H135.378C135.092 67.0281 134.949 66.9241 134.949 66.7161V65.1821C134.943 65.0872 134.969 64.9929 135.023 64.9148C135.077 64.8367 135.157 64.7797 135.248 64.7531C135.698 64.5897 136.174 64.5103 136.652 64.5191C137.129 64.4769 137.608 64.5781 138.027 64.8097C138.447 65.0413 138.787 65.3928 139.005 65.8191C139.424 65.3955 139.925 65.0618 140.477 64.8383C141.029 64.6148 141.621 64.5062 142.216 64.5191ZM140.188 71.5001C140.42 71.7424 140.699 71.9352 141.007 72.0669C141.315 72.1986 141.647 72.2665 141.982 72.2665C142.318 72.2665 142.649 72.1986 142.958 72.0669C143.266 71.9352 143.544 71.7424 143.776 71.5001C144.265 70.9556 144.521 70.242 144.491 69.5111C144.525 68.7797 144.268 68.0645 143.776 67.5221C143.544 67.2799 143.266 67.0871 142.958 66.9554C142.649 66.8237 142.318 66.7558 141.982 66.7558C141.647 66.7558 141.315 66.8237 141.007 66.9554C140.699 67.0871 140.42 67.2799 140.188 67.5221C139.715 68.0741 139.469 68.7848 139.499 69.5111C139.473 70.2369 139.719 70.9462 140.188 71.5001Z" fill="#0D0E10"/>
<path d="M153.5 74.6067C152.333 74.6547 151.176 74.3755 150.159 73.8007C149.751 73.555 149.404 73.2205 149.143 72.8222C148.882 72.4238 148.714 71.9718 148.651 71.4997C148.651 71.2397 148.742 71.1097 149.028 71.1097H150.939C151.03 71.1132 151.118 71.1418 151.194 71.1923C151.27 71.2427 151.33 71.3131 151.368 71.3957C151.641 72.0977 152.356 72.4487 153.5 72.4487C153.899 72.4669 154.297 72.3866 154.657 72.2147C154.782 72.1585 154.889 72.0695 154.967 71.9573C155.044 71.8452 155.09 71.7139 155.099 71.5777C155.099 71.2397 154.891 71.0057 154.475 70.8497C153.982 70.6855 153.472 70.5765 152.954 70.5247C152.341 70.4553 151.733 70.3467 151.134 70.1997C150.552 70.0678 150.022 69.7644 149.613 69.3287C149.373 69.0325 149.196 68.69 149.093 68.3225C148.99 67.9549 148.965 67.5702 149.017 67.1922C149.069 66.8142 149.199 66.451 149.398 66.1253C149.597 65.7995 149.86 65.5182 150.172 65.2987C151.109 64.7018 152.209 64.411 153.318 64.4667C154.393 64.4304 155.456 64.6961 156.386 65.2337C156.761 65.4462 157.084 65.7396 157.332 66.0927C157.579 66.4458 157.745 66.8496 157.816 67.2747C157.816 67.5347 157.699 67.6647 157.465 67.6647H155.541C155.46 67.6695 155.38 67.6497 155.31 67.608C155.241 67.5662 155.185 67.5044 155.151 67.4307C155.023 67.1228 154.781 66.8761 154.475 66.7417C154.131 66.5614 153.746 66.4719 153.357 66.4817C152.976 66.461 152.596 66.537 152.252 66.7027C152.131 66.7494 152.027 66.8314 151.953 66.9379C151.879 67.0445 151.838 67.1709 151.836 67.3007C151.845 67.4785 151.91 67.6489 152.022 67.7869C152.134 67.925 152.288 68.0234 152.46 68.0677C152.96 68.2558 153.479 68.3867 154.007 68.4577C154.615 68.5377 155.219 68.6505 155.814 68.7957C156.397 68.9276 156.927 69.2309 157.335 69.6667C157.554 69.9067 157.723 70.1877 157.832 70.4934C157.941 70.7991 157.989 71.1235 157.972 71.4477C157.984 71.8971 157.878 72.3417 157.666 72.7381C157.454 73.1346 157.143 73.4693 156.763 73.7097C155.792 74.3332 154.654 74.6461 153.5 74.6067V74.6067Z" fill="#0D0E10"/>
<path d="M171.713 73.9571C171.721 74.0032 171.719 74.0504 171.708 74.0958C171.696 74.1412 171.676 74.1839 171.648 74.2215C171.621 74.259 171.586 74.2906 171.545 74.3144C171.505 74.3382 171.461 74.3537 171.414 74.3601C170.94 74.515 170.444 74.5983 169.945 74.6071C169.451 74.6582 168.952 74.581 168.497 74.3829C168.041 74.1847 167.645 73.8724 167.345 73.4761C166.427 74.2656 165.24 74.6706 164.03 74.6071C163.469 74.6329 162.908 74.541 162.384 74.3373C161.86 74.1336 161.385 73.8225 160.988 73.4241C160.594 73.0066 160.289 72.5139 160.09 71.9756C159.891 71.4372 159.803 70.8643 159.831 70.2911V65.2081C159.831 64.9611 159.948 64.8311 160.195 64.8311H162.379C162.626 64.8311 162.743 64.9611 162.743 65.2081V69.9011C162.719 70.4858 162.919 71.0575 163.302 71.5001C163.493 71.7028 163.726 71.8622 163.983 71.9676C164.241 72.073 164.519 72.1219 164.797 72.1111C165.082 72.1235 165.367 72.0794 165.634 71.9812C165.902 71.883 166.148 71.7328 166.357 71.5391C166.555 71.3349 166.709 71.0923 166.81 70.8262C166.911 70.5601 166.956 70.2762 166.942 69.9921V65.2081C166.942 64.9611 167.059 64.8311 167.306 64.8311H169.516C169.763 64.8311 169.88 64.9611 169.88 65.2081V71.3311C169.88 71.8381 170.101 72.0851 170.53 72.0851C170.732 72.0929 170.933 72.071 171.128 72.0201C171.177 72.0063 171.229 72.0038 171.279 72.0128C171.329 72.0219 171.377 72.0421 171.418 72.0722C171.46 72.1022 171.494 72.1412 171.518 72.1862C171.542 72.2312 171.555 72.2811 171.557 72.3321L171.713 73.9571Z" fill="#0D0E10"/>
<path d="M192.37 73.9567C192.382 74.0032 192.383 74.0517 192.373 74.0988C192.364 74.1458 192.344 74.1902 192.316 74.2287C192.287 74.2672 192.25 74.299 192.208 74.3216C192.166 74.3442 192.119 74.3572 192.071 74.3597C191.588 74.5168 191.084 74.6001 190.576 74.6067C189.803 74.6465 189.039 74.4269 188.405 73.9827C188.131 73.7924 187.908 73.5374 187.756 73.2403C187.604 72.9432 187.528 72.6133 187.534 72.2797V69.2247C187.561 68.6417 187.366 68.0701 186.988 67.6257C186.806 67.4225 186.58 67.2623 186.329 67.1566C186.077 67.051 185.805 67.0025 185.532 67.0146C185.286 67.0054 185.041 67.052 184.816 67.1511C184.591 67.2502 184.391 67.3991 184.232 67.5867C183.889 68.0223 183.714 68.5666 183.738 69.1206V73.9177C183.738 74.1647 183.621 74.2947 183.374 74.2947H181.177C181.126 74.301 181.074 74.2956 181.026 74.2789C180.977 74.2622 180.933 74.2346 180.896 74.1982C180.86 74.1619 180.832 74.1177 180.816 74.0691C180.799 74.0205 180.794 73.9687 180.8 73.9177V69.2247C180.828 68.6481 180.648 68.0805 180.293 67.6257C180.134 67.4346 179.936 67.2808 179.711 67.1752C179.486 67.0696 179.241 67.0148 178.993 67.0146C178.728 67.0039 178.463 67.0494 178.217 67.1479C177.97 67.2465 177.748 67.396 177.563 67.5867C177.191 68.0084 177 68.5592 177.03 69.1206V73.9177C177.036 73.9687 177.031 74.0205 177.014 74.0691C176.997 74.1177 176.97 74.1619 176.934 74.1982C176.897 74.2346 176.853 74.2622 176.804 74.2789C176.756 74.2956 176.704 74.301 176.653 74.2947H174.534C174.287 74.2947 174.17 74.1647 174.17 73.9177V67.7947C174.185 67.6904 174.176 67.584 174.143 67.4839C174.11 67.3839 174.054 67.293 173.979 67.2185C173.905 67.144 173.814 67.0879 173.714 67.0548C173.614 67.0216 173.507 67.0123 173.403 67.0277H172.974C172.688 67.0277 172.545 66.9237 172.545 66.7157V65.1816C172.538 65.0867 172.564 64.9924 172.619 64.9143C172.673 64.8362 172.753 64.7792 172.844 64.7527C173.294 64.5892 173.77 64.5099 174.248 64.5187C174.707 64.4795 175.168 64.5711 175.578 64.7827C175.987 64.9943 176.328 65.3174 176.562 65.7146C177.001 65.299 177.52 64.9782 178.088 64.7724C178.656 64.5666 179.261 64.4802 179.864 64.5187C180.45 64.4901 181.034 64.5999 181.569 64.8393C182.105 65.0788 182.576 65.441 182.945 65.8966C183.375 65.4291 183.904 65.0629 184.493 64.8246C185.082 64.5863 185.717 64.4818 186.351 64.5187C186.918 64.4921 187.485 64.5835 188.016 64.7871C188.546 64.9908 189.028 65.3022 189.432 65.7017C189.827 66.1183 190.133 66.6108 190.332 67.1494C190.531 67.6879 190.618 68.2613 190.589 68.8347V71.3437C190.589 71.8377 190.81 72.0847 191.226 72.0847C191.427 72.094 191.629 72.0721 191.824 72.0197C192.093 72.0197 192.236 72.1237 192.253 72.3317L192.37 73.9567Z" fill="#0D0E10"/>
<path d="M39.9324 63.1408C40.8915 59.2858 43.1128 55.8626 46.2425 53.4161C49.3722 50.9697 53.2305 49.6406 57.2029 49.6406C61.1754 49.6406 65.0336 50.9697 68.1633 53.4161C71.2931 55.8626 73.5143 59.2858 74.4734 63.1408H72.9134C70.2818 63.102 67.7041 63.8885 65.5424 65.3898C65.4177 65.4801 65.2874 65.5626 65.1524 65.6368H64.9704C64.8354 65.5626 64.7052 65.4801 64.5804 65.3898C62.3995 63.9232 59.831 63.14 57.2029 63.14C54.5748 63.14 52.0063 63.9232 49.8254 65.3898C49.7007 65.4801 49.5704 65.5626 49.4354 65.6368H49.2534C49.1184 65.5626 48.9882 65.4801 48.8634 65.3898C46.7017 63.8885 44.124 63.102 41.4924 63.1408H39.9324ZM70.1054 71.2918C70.9062 70.6681 71.8988 70.3419 72.9134 70.3688H75.0064V66.1958H72.9134C71.1262 66.1741 69.3798 66.7304 67.9344 67.7818C67.121 68.3814 66.137 68.705 65.1264 68.705C64.1158 68.705 63.1318 68.3814 62.3184 67.7818C60.8363 66.75 59.0738 66.197 57.2679 66.197C55.4621 66.197 53.6995 66.75 52.2174 67.7818C51.404 68.3814 50.42 68.705 49.4094 68.705C48.3988 68.705 47.4148 68.3814 46.6014 67.7818C45.1381 66.717 43.3667 66.16 41.5574 66.1958H39.3994V70.3688H41.4924C42.5071 70.3419 43.4996 70.6681 44.3004 71.2918C45.7798 72.3242 47.5404 72.8777 49.3444 72.8777C51.1484 72.8777 52.909 72.3242 54.3884 71.2918C55.1903 70.67 56.1821 70.344 57.1964 70.3688C58.2114 70.3397 59.2046 70.6662 60.0044 71.2918C61.4865 72.3235 63.2491 72.8766 65.0549 72.8766C66.8608 72.8766 68.6233 72.3235 70.1054 71.2918V71.2918ZM70.1054 78.7538C70.9062 78.1301 71.8988 77.8039 72.9134 77.8308H75.0064V73.6578H72.9134C71.1262 73.6361 69.3798 74.1924 67.9344 75.2438C67.121 75.8434 66.137 76.167 65.1264 76.167C64.1158 76.167 63.1318 75.8434 62.3184 75.2438C60.8363 74.212 59.0738 73.659 57.2679 73.659C55.4621 73.659 53.6995 74.212 52.2174 75.2438C51.404 75.8434 50.42 76.167 49.4094 76.167C48.3988 76.167 47.4148 75.8434 46.6014 75.2438C45.1381 74.179 43.3667 73.622 41.5574 73.6578H39.3994V77.8308H41.4924C42.5071 77.8039 43.4996 78.1301 44.3004 78.7538C45.7798 79.7862 47.5404 80.3397 49.3444 80.3397C51.1484 80.3397 52.909 79.7862 54.3884 78.7538C55.1903 78.132 56.1821 77.806 57.1964 77.8308C58.2114 77.8017 59.2046 78.1282 60.0044 78.7538C61.4865 79.7855 63.2491 80.3386 65.0549 80.3386C66.8608 80.3386 68.6233 79.7855 70.1054 78.7538V78.7538Z" fill="#0D0E10"/>
</svg>
